<svg width="23" height="15" viewBox="0 0 23 15" fill="none" xmlns="http://www.w3.org/2000/svg">
<path d="M6.01775 14.2124C4.78242 14.2124 3.71142 13.9064 2.80475 13.2944C1.89808 12.6711 1.20108 11.8211 0.71375 10.7444C0.23775 9.66777 0.0110834 8.44944 0.03375 7.08944C0.0564167 5.80877 0.317083 4.6301 0.81575 3.55344C1.32575 2.47677 2.03408 1.61544 2.94075 0.969437C3.84742 0.323437 4.92408 0.0004372 6.17075 0.0004372C7.46275 0.0004372 8.62442 0.397104 9.65575 1.19044C10.6871 1.98377 11.4238 3.31544 11.8658 5.18544H10.8798C11.1971 3.9501 11.6504 2.95277 12.2398 2.19344C12.8404 1.42277 13.5148 0.867437 14.2628 0.527436C15.0108 0.176104 15.7871 0.0004372 16.5918 0.0004372C17.7251 0.0004372 18.7508 0.28377 19.6688 0.850436C20.5868 1.4171 21.3178 2.22177 21.8618 3.26444C22.4058 4.3071 22.6778 5.5481 22.6778 6.98744C22.6778 8.34744 22.4228 9.5771 21.9128 10.6764C21.4141 11.7644 20.7058 12.6258 19.7878 13.2604C18.8698 13.8951 17.8044 14.2124 16.5918 14.2124C15.7644 14.2124 14.9768 14.0481 14.2288 13.7194C13.4808 13.3908 12.8121 12.8524 12.2228 12.1044C11.6448 11.3451 11.1971 10.3138 10.8798 9.01044H11.8658C11.5258 10.3138 11.0498 11.3451 10.4378 12.1044C9.82575 12.8524 9.13442 13.3908 8.36375 13.7194C7.59308 14.0481 6.81108 14.2124 6.01775 14.2124ZM6.20475 10.4894C6.97542 10.4894 7.68375 10.2061 8.32975 9.63944C8.98708 9.06144 9.62742 8.2171 10.2508 7.10644C9.62742 5.9731 8.98708 5.1231 8.32975 4.55644C7.68375 3.98977 6.97542 3.70644 6.20475 3.70644C5.62675 3.70644 5.12242 3.85377 4.69175 4.14844C4.26108 4.43177 3.92108 4.82844 3.67175 5.33844C3.43375 5.84844 3.31475 6.43777 3.31475 7.10644C3.31475 7.76377 3.43375 8.34744 3.67175 8.85744C3.92108 9.36744 4.26108 9.76977 4.69175 10.0644C5.12242 10.3478 5.62675 10.4894 6.20475 10.4894ZM16.5408 10.4894C17.1188 10.4894 17.6231 10.3478 18.0537 10.0644C18.4958 9.76977 18.8358 9.36744 19.0738 8.85744C19.3118 8.34744 19.4308 7.76377 19.4308 7.10644C19.4308 6.43777 19.3118 5.84844 19.0738 5.33844C18.8358 4.82844 18.4958 4.43177 18.0537 4.14844C17.6231 3.85377 17.1188 3.70644 16.5408 3.70644C15.7701 3.70644 15.0561 3.98977 14.3988 4.55644C13.7528 5.1231 13.1181 5.9731 12.4948 7.10644C13.1181 8.2171 13.7528 9.06144 14.3988 9.63944C15.0561 10.2061 15.7701 10.4894 16.5408 10.4894Z" fill="white"/>
</svg>
