<svg width="376" height="371" viewBox="0 0 376 371" fill="none" xmlns="http://www.w3.org/2000/svg">
<path d="M155.407 60.4398C154.758 62.6369 154.459 62.8865 152.411 63.5856L150.115 64.3845L152.062 65.1835C153.56 65.8326 154.209 66.5816 155.108 68.4791L156.256 70.9758L157.405 68.4791C158.304 66.5317 158.953 65.7827 160.551 65.0836L162.548 64.2347L160.8 63.8852C158.803 63.4857 158.004 62.7367 156.905 59.9904L156.156 58.043L155.407 60.4398Z" fill="white"/>
<path d="M192.908 67.6802C184.768 74.1715 175.78 83.2594 170.188 90.6995L168.79 92.597L171.736 91.2488C176.18 89.2515 182.821 87.2042 187.715 86.3054C190.161 85.856 192.508 85.3067 192.908 85.107C193.906 84.5577 196.603 78.2161 197.851 73.3726C199.049 68.8286 199.749 63.0863 199.099 63.0863C198.85 63.0863 196.053 65.1835 192.908 67.6802Z" fill="white"/>
<path d="M243.09 64.6841C226.812 71.6748 211.932 79.814 200.197 88.0531C197.551 89.9505 196.202 90.4998 194.055 90.7994C187.314 91.6483 174.381 95.4932 169.388 98.1396C163.196 101.385 158.353 107.078 154.907 115.067C152.66 120.36 151.462 122.158 148.815 124.055C146.169 125.953 139.678 128 136.182 128C133.686 128 133.436 128.1 132.937 129.348C132.188 131.246 133.036 136.139 134.734 139.934C137.281 145.527 143.722 150.22 150.713 151.519C154.608 152.268 159.551 151.768 165.194 150.22C173.533 147.873 178.526 146.925 180.673 147.274C181.772 147.424 184.568 148.672 186.915 149.971C193.306 153.616 195.803 154.215 204.491 154.215C208.486 154.215 211.981 154.065 212.181 153.866C212.381 153.616 212.181 153.067 211.732 152.567C210.134 150.82 205.44 143.28 205.69 142.93C205.989 142.431 209.585 142.83 213.629 143.829C216.825 144.578 220.97 146.675 223.966 149.072C225.713 150.42 225.913 150.47 226.163 149.621C226.312 149.122 226.662 148.173 226.912 147.474C228.46 142.98 228.959 131.545 227.86 125.503C227.561 123.805 227.361 122.307 227.461 122.208C227.561 122.158 229.209 123.056 231.106 124.255L234.601 126.452L234.901 125.104C235.45 122.907 235.4 111.622 234.851 106.778C234.551 104.331 233.852 100.137 233.303 97.4905L232.354 92.6969L235.65 87.0044C240.044 79.4645 247.334 64.6841 247.334 63.3359C247.334 62.9365 246.635 63.1362 243.09 64.6841ZM184.418 116.365C184.917 116.815 182.121 121.159 180.623 122.357C179.724 123.007 177.927 123.905 176.628 124.305C173.932 125.104 169.638 125.254 169.188 124.505C168.789 123.855 170.237 121.109 171.885 119.361C173.533 117.564 175.43 116.565 178.077 116.066C180.024 115.716 183.869 115.916 184.418 116.365Z" fill="white"/>
<path d="M139.079 82.8598C137.531 88.1029 135.933 89.6508 131.29 90.5496L127.844 91.1988L130.541 92.1974C135.484 93.995 136.882 95.5929 139.828 102.983C140.228 104.082 140.377 103.982 141.376 101.185C143.373 95.7427 145.371 93.5956 149.915 92.0476L152.511 91.1988L149.366 90.5496C143.723 89.4511 142.924 88.6521 141.027 81.9111L140.178 79.015L139.079 82.8598Z" fill="white"/>
<path d="M124.598 152.068C111.815 164.951 109.369 184.625 118.406 201.902C125.697 215.883 137.082 225.221 151.712 229.215C156.456 230.514 157.305 230.564 167.941 230.564C179.875 230.613 183.52 230.164 192.158 227.617C197.152 226.169 200.298 224.921 205.441 222.374C209.635 220.227 210.334 219.528 207.388 220.377C203.693 221.426 193.806 222.374 186.316 222.374C167.242 222.374 151.712 217.681 142.624 209.192C138.03 204.898 132.288 196.958 133.137 196.059C133.287 195.96 134.635 196.858 136.183 198.107C146.569 206.545 158.453 210.89 171.186 210.89C176.579 210.89 179.575 210.49 196.153 207.544C203.294 206.296 212.981 206.496 219.023 208.043C228.111 210.44 237.997 215.983 245.438 222.824C249.133 226.269 253.876 232.062 255.474 235.107L256.223 236.605L257.322 234.109C261.117 225.32 263.014 215.533 262.715 206.396C262.515 201.602 262.215 199.405 261.316 196.908C257.971 187.321 251.48 180.58 240.993 175.537L237.099 173.689L246.087 173.19L243.34 170.993C235.401 164.651 227.062 161.256 216.127 159.907C206.889 158.759 196.702 160.706 180.923 166.599C166.143 172.091 157.954 174.188 152.761 173.789C140.827 172.84 130.69 163.902 127.794 151.818L127.195 149.421L124.598 152.068Z" fill="white"/>
<path d="M206.826 355.449L234.238 334.129C269.283 306.848 296.409 268.788 312.29 224.615C328.171 180.443 332.118 132.078 323.646 85.4482C323.228 83.1504 322.34 80.9905 321.05 79.1356C319.761 77.2808 318.105 75.7808 316.21 74.7518L199.941 11.5361C192.495 7.48725 183.504 7.48749 176.057 11.5367L59.804 74.7518C57.9066 75.7786 56.2474 77.2776 54.955 79.1326C53.6627 80.9876 52.772 83.1486 52.3519 85.4482C43.8819 132.08 47.831 180.446 63.7152 224.619C79.5994 268.791 106.728 306.85 141.777 334.129L169.188 355.449C174.705 359.741 181.275 362.043 188.007 362.043C194.74 362.043 201.31 359.741 206.826 355.449Z" stroke="#D200FF" stroke-width="17" stroke-linecap="round" stroke-linejoin="round"/>
<path d="M46.4805 254.543L52.3066 257.321L77.5996 288.53L102.894 257.321L108.72 254.543H137.2L143.028 266.764L97.668 322.764L91.8398 325.543H63.3604L57.5322 322.764L12.1719 266.764L18 254.543H46.4805Z" fill="white" stroke="black" stroke-width="15" stroke-linejoin="bevel"/>
<path d="M276.093 254.543L279.821 255.536L324.433 281.101V262.043L331.933 254.543H357.214L364.714 262.043V318.043L357.214 325.543H331.933L328.203 324.55L283.593 298.984V318.043L276.093 325.543H250.812L243.312 318.043V262.043L250.812 254.543H276.093Z" fill="white" stroke="black" stroke-width="15" stroke-linejoin="bevel"/>
<path d="M218.022 281.243H165.702V287.643H218.022C220.262 287.643 221.542 286.443 221.542 284.443C221.542 282.443 220.262 281.243 218.022 281.243ZM165.702 318.043H140.422V262.043H224.422C238.422 262.043 246.822 273.243 246.822 284.443C246.822 295.643 238.422 306.843 224.422 306.843H165.702V318.043Z" fill="white"/>
</svg>
