<svg width="151" height="164" viewBox="0 0 151 164" fill="none" xmlns="http://www.w3.org/2000/svg">
<path d="M71.2745 0.392349C68.1624 1.28104 15.8347 29.8079 13.8785 31.7186C10.5886 34.829 9.34375 42.605 9.34375 59.3568C9.34375 73.9757 10.4997 82.4627 14.2342 94.771C16.6794 102.947 21.7032 114.5 25.3933 120.543L26.238 121.965L28.6832 119.032L31.084 116.055L28.1942 110.234C22.459 98.7701 18.8134 86.5062 16.9906 72.6871C15.6569 62.4672 16.8128 39.4946 18.8134 37.0952C19.2135 36.6508 31.3507 29.8079 45.7553 21.943L71.9858 7.63515H74.8756H77.7654L104.174 22.0763C118.712 29.9857 130.849 36.873 131.16 37.3618C133.161 40.5166 134.005 64.1557 132.494 74.6867C130.849 86.0174 127.781 96.7261 123.202 106.857L120.757 112.234L123.78 114.011C125.469 114.989 126.937 115.788 127.025 115.788C127.381 115.788 132.494 103.88 134.005 99.5699C137.073 90.8608 139.296 80.2854 140.274 69.8433C141.208 59.7567 140.274 42.8272 138.407 35.8954C137.295 31.8519 136.273 31.1409 109.109 16.4332C95.282 8.92375 82.7892 2.21416 81.3221 1.54765C78.1211 0.0368729 74.1643 -0.407471 71.2745 0.392349Z" fill="#D200FF"/>
<path d="M43.3939 138.006C42.1046 139.517 41.082 140.939 41.082 141.116C41.082 142.583 64.1115 161.067 68.2017 162.889C70.2468 163.822 71.3583 164 74.8705 164C78.5606 164 79.4497 163.822 81.7171 162.8C83.94 161.734 101.101 148.848 101.857 147.693C101.99 147.426 101.012 146.137 99.6339 144.76C97.3665 142.494 97.0998 142.36 96.2995 142.938C95.8105 143.294 91.8536 146.315 87.5412 149.692C77.7158 157.424 75.4485 158.268 70.8248 156.046C67.6238 154.491 47.1284 137.828 46.0169 135.873C45.7502 135.429 45.0833 135.962 43.3939 138.006Z" fill="#D200FF"/>
<path d="M60.3853 27.1419C60.2519 27.4974 59.7628 27.8973 59.3183 28.0306C58.6514 28.2528 58.6514 28.3861 59.7184 29.5414C60.7409 30.6523 60.9188 30.7411 61.2744 30.0746C61.4967 29.6747 61.8968 29.1415 62.1636 28.9193C62.5193 28.6083 62.3859 28.2084 61.6301 27.4974C60.8298 26.6532 60.5631 26.6087 60.3853 27.1419Z" fill="white"/>
<path d="M75.3168 31.5415C71.6268 34.6963 67.0031 39.673 67.4032 40.0284C67.4921 40.1617 68.5591 39.8507 69.804 39.4064C71.0043 38.962 73.1383 38.3399 74.561 38.0289C77.4953 37.4512 77.9843 36.7847 79.0958 32.1635C79.8516 28.9643 79.896 28.2533 79.4515 28.2533C79.2292 28.2533 77.4064 29.7197 75.3168 31.5415Z" fill="white"/>
<path d="M93.0561 31.7196C89.2771 33.5858 84.52 36.2519 82.4305 37.6293C79.9853 39.229 77.9846 40.251 76.7398 40.4287C75.6728 40.562 72.9608 41.3174 70.649 42.0283C65.6252 43.6724 62.6909 45.983 60.8237 49.9377C58.9119 53.8923 57.8005 55.1809 55.4442 55.9807C54.3327 56.3806 52.8211 56.6917 52.1098 56.6917C50.4648 56.6917 50.1092 57.6248 50.8205 60.202C52.421 66.2451 57.6671 68.2446 66.1587 66.0229C70.8268 64.8232 71.716 64.8676 74.917 66.5561C77.2288 67.7558 78.2069 68.0225 81.6747 68.1558L85.7204 68.3779L84.6979 66.8672C83.3197 64.7787 82.6972 63.4013 82.964 63.1347C83.453 62.6459 87.7655 63.9345 89.7217 65.1342L91.7668 66.4228L92.078 65.2231C92.3003 64.5566 92.4337 61.7572 92.4337 59.0023C92.4337 56.2918 92.5226 54.0256 92.6559 54.0256C92.7893 54.0256 93.2784 54.3367 93.723 54.6921C95.5013 56.0252 95.768 55.5808 95.768 51.6262C95.768 49.5822 95.4568 46.3385 95.1012 44.4722L94.4787 41.0508L96.6128 37.0961C99.8582 31.2752 101.148 28.2537 100.481 28.2537C100.169 28.2537 96.835 29.8089 93.0561 31.7196ZM72.8719 52.6926C72.0272 54.2922 70.1155 55.3587 67.9815 55.3587C66.0253 55.3587 65.9364 54.5588 67.8036 52.737C68.9596 51.5817 69.4931 51.3596 71.3603 51.3596H73.5833L72.8719 52.6926Z" fill="white"/>
<path d="M52.9103 37.5404C52.2879 38.829 51.6655 39.4955 50.6429 39.8954L49.1758 40.3842L50.554 41.3173C51.3542 41.8505 52.3768 43.0058 52.8658 43.8945L53.755 45.4941L54.5108 43.7612C54.9109 42.8281 55.8446 41.6728 56.6893 41.184L58.1119 40.2953L56.956 40.0287C55.5333 39.6732 54.4663 38.5179 54.0662 36.9183L53.7105 35.6741L52.9103 37.5404Z" fill="white"/>
<path d="M45.7994 68.5998C39.6196 76.1537 40.5977 87.1734 48.2001 95.1272C53.1795 100.282 57.6698 102.014 66.2503 102.014C72.6078 102.014 76.3424 101.304 80.6548 99.2151C83.1001 98.0598 83.1001 98.0598 81.3217 98.3264C80.3436 98.5042 76.9648 98.6375 73.7638 98.6375C64.7831 98.593 59.0035 96.7712 54.5132 92.5055C52.2903 90.4171 50.1118 87.4845 50.512 87.129C50.6009 87.0401 51.6679 87.6178 52.8683 88.5064C59.1814 92.9499 65.8057 94.194 74.9197 92.5055C81.055 91.3947 83.3668 91.2614 86.6567 91.7946C92.5253 92.7277 99.5052 96.9045 103.284 101.792C105.552 104.725 105.552 104.725 106.885 99.5262C107.997 95.3049 108.041 89.6617 107.063 86.7291C106.085 83.8853 102.484 80.0639 99.1496 78.331L96.4376 76.9091L98.4382 76.6869L100.439 76.4647L97.9492 74.8207C93.8146 72.1102 90.5246 71.177 84.8784 71.177C80.0324 71.177 79.899 71.177 71.7631 73.9764C62.3379 77.1757 59.6704 77.62 56.1582 76.4647C52.9572 75.3983 49.5339 71.9768 48.4669 68.7776C48.0223 67.489 47.6666 66.467 47.6222 66.467C47.5777 66.467 46.7775 67.4001 45.7994 68.5998Z" fill="white"/>
<path d="M0.0507783 116.855C0.228612 117.166 4.71892 122.765 9.96503 129.252L19.5236 141.072L25.7478 141.116H32.0164L41.8862 128.897C47.3102 122.187 51.756 116.588 51.756 116.455C51.756 116.322 49.0441 116.233 45.7541 116.233H39.7967L33.039 124.542C29.3489 129.163 26.1924 133.029 26.0145 133.207C25.8812 133.34 22.6357 129.608 18.8567 124.898L11.9657 116.277H5.83038C0.762114 116.233 -0.260431 116.322 0.0507783 116.855Z" fill="white"/>
<path d="M53.9805 128.675V141.116H59.3155H64.6061L64.7394 138.539L64.8728 136.006L79.8553 135.784L94.7934 135.562L96.7051 134.229C102.574 130.096 101.951 120.81 95.6381 117.433C93.8153 116.455 93.5041 116.455 73.8979 116.322L53.9805 116.189V128.675ZM89.5917 125.386C89.9919 125.875 90.0363 126.275 89.6807 126.808C89.2805 127.475 87.9468 127.564 77.0544 127.564H64.8728L64.7394 126.097L64.6061 124.675H76.7877C87.3688 124.675 89.0582 124.764 89.5917 125.386Z" fill="white"/>
<path d="M102.887 128.675V141.116H108.444H114.001L114.09 134.007L114.224 126.897L126.672 134.007L139.12 141.116H144.589H150.013V128.675V116.233H144.455H138.898L138.809 123.342L138.676 130.452L126.227 123.342L113.779 116.233H108.355H102.887V128.675Z" fill="white"/>
</svg>
