<svg width="12" height="12" viewBox="0 0 12 12" fill="none" xmlns="http://www.w3.org/2000/svg">
<path d="M1 4L1.652 4.5215C1.87914 4.70318 2.14318 4.83312 2.4257 4.90228C2.70822 4.97144 3.00242 4.97814 3.2878 4.92192C3.57317 4.8657 3.84285 4.74792 4.07803 4.57677C4.31321 4.40563 4.50823 4.18525 4.6495 3.931L6 1.5L7.3505 3.931C7.4918 4.18529 7.68688 4.40569 7.92212 4.57684C8.15736 4.74799 8.42711 4.86575 8.71254 4.92193C8.99798 4.9781 9.29224 4.97133 9.57479 4.90208C9.85734 4.83284 10.1214 4.70279 10.3485 4.521L11 4L10.123 8.385C10.0847 8.57637 10.0032 8.75646 9.88478 8.91157C9.76633 9.06667 9.61404 9.19268 9.4395 9.28C8.37158 9.814 7.19399 10.092 6 10.092C4.80601 10.092 3.62842 9.814 2.5605 9.28C2.38596 9.19268 2.23367 9.06667 2.11522 8.91157C1.99677 8.75646 1.91529 8.57637 1.877 8.385L1 4Z" stroke="white" stroke-linecap="round" stroke-linejoin="round"/>
<path d="M4 7.5C5.298 8.1665 6.702 8.1665 8 7.5" stroke="white" stroke-linecap="round" stroke-linejoin="round"/>
</svg>
