<svg width="422" height="625" viewBox="0 0 422 625" fill="none" xmlns="http://www.w3.org/2000/svg">
<g clip-path="url(#clip0_615_1505)">
<rect width="422" height="625" fill="black"/>
<g filter="url(#filter0_f_615_1505)">
<ellipse cx="46.0547" cy="99.6787" rx="101.5" ry="173" transform="rotate(24.9749 46.0547 99.6787)" fill="#D200FF" fill-opacity="0.66"/>
</g>
<g filter="url(#filter1_f_615_1505)">
<ellipse cx="22.1911" cy="65.5922" rx="48.0828" ry="81.9539" transform="rotate(24.9749 22.1911 65.5922)" fill="white" fill-opacity="0.82"/>
</g>
<g filter="url(#filter2_f_615_1505)">
<path d="M468.064 604.534C481.448 575.799 489.943 545.458 492.62 516.826C495.298 488.193 492.056 462.369 483.248 442.173C474.44 421.977 460.405 408.186 442.675 402.305C424.945 396.424 404.202 398.68 382.71 408.826C361.219 418.972 339.806 436.618 320.809 459.838C301.812 483.058 285.961 510.958 274.987 540.493C264.014 570.028 258.34 600.062 258.584 627.315C258.828 654.568 264.982 677.993 276.373 695.032L376.055 561.679L468.064 604.534Z" fill="#610774" fill-opacity="0.64"/>
</g>
<g filter="url(#filter3_f_615_1505)">
<path d="M152 624.5C152 589.647 146.142 555.631 135.216 527.034C124.29 498.437 108.821 476.632 90.8913 464.558C72.9618 452.484 53.4337 450.72 34.9374 459.503C16.4412 468.286 -0.134617 487.195 -12.5573 513.682L58.5 624.5H152Z" fill="#871578" fill-opacity="0.59"/>
</g>
</g>
<defs>
<filter id="filter0_f_615_1505" x="-371.43" y="-362.936" width="834.969" height="925.229" filterUnits="userSpaceOnUse" color-interpolation-filters="sRGB">
<feFlood flood-opacity="0" result="BackgroundImageFix"/>
<feBlend mode="normal" in="SourceGraphic" in2="BackgroundImageFix" result="shape"/>
<feGaussianBlur stdDeviation="150" result="effect1_foregroundBlur_615_1505"/>
</filter>
<filter id="filter1_f_615_1505" x="-183.465" y="-161.441" width="411.309" height="454.067" filterUnits="userSpaceOnUse" color-interpolation-filters="sRGB">
<feFlood flood-opacity="0" result="BackgroundImageFix"/>
<feBlend mode="normal" in="SourceGraphic" in2="BackgroundImageFix" result="shape"/>
<feGaussianBlur stdDeviation="75" result="effect1_foregroundBlur_615_1505"/>
</filter>
<filter id="filter2_f_615_1505" x="58.5781" y="199.105" width="634.953" height="695.926" filterUnits="userSpaceOnUse" color-interpolation-filters="sRGB">
<feFlood flood-opacity="0" result="BackgroundImageFix"/>
<feBlend mode="normal" in="SourceGraphic" in2="BackgroundImageFix" result="shape"/>
<feGaussianBlur stdDeviation="100" result="effect1_foregroundBlur_615_1505"/>
</filter>
<filter id="filter3_f_615_1505" x="-212.559" y="254" width="564.559" height="570.5" filterUnits="userSpaceOnUse" color-interpolation-filters="sRGB">
<feFlood flood-opacity="0" result="BackgroundImageFix"/>
<feBlend mode="normal" in="SourceGraphic" in2="BackgroundImageFix" result="shape"/>
<feGaussianBlur stdDeviation="100" result="effect1_foregroundBlur_615_1505"/>
</filter>
<clipPath id="clip0_615_1505">
<rect width="422" height="625" fill="white"/>
</clipPath>
</defs>
</svg>
