<svg width="150" height="179" viewBox="0 0 150 179" fill="none" xmlns="http://www.w3.org/2000/svg">
<g clip-path="url(#clip0_976_2664)">
<path d="M42.4082 2.39681C41.7591 4.59389 41.4594 4.84356 39.4122 5.54263L37.1152 6.34157L39.0626 7.1405C40.5606 7.78964 41.2098 8.53864 42.1086 10.4361L43.2571 12.9328L44.4055 10.4361C45.3043 8.48871 45.9535 7.73971 47.5513 7.04064L49.5487 6.19176L47.801 5.84223C45.8037 5.44276 45.0047 4.69376 43.9062 1.94741L43.1572 0L42.4082 2.39681Z" fill="#9F9F9F" fill-opacity="0.03"/>
<path d="M79.907 9.63686C71.7678 16.1283 62.7798 25.2162 57.1872 32.6563L55.7891 34.5537L58.7352 33.2055C63.1793 31.2082 69.8204 29.1609 74.7139 28.2621C77.1607 27.8127 79.5075 27.2634 79.907 27.0637C80.9057 26.5144 83.6021 20.1729 84.8504 15.3293C86.0488 10.7854 86.7479 5.04297 86.0988 5.04297C85.8491 5.04297 83.0528 7.14018 79.907 9.63686Z" fill="#9F9F9F" fill-opacity="0.03"/>
<path d="M130.089 6.63969C113.811 13.6304 98.9309 21.7695 87.1965 30.0086C84.5501 31.9061 83.2019 32.4553 81.0547 32.7549C74.3137 33.6038 61.3809 37.4487 56.3875 40.0952C50.1958 43.3408 45.3522 49.0333 41.9068 57.0226C39.6598 62.3156 38.4614 64.1132 35.8149 66.0107C33.1684 67.9082 26.677 69.9554 23.1817 69.9554C20.685 69.9554 20.4353 70.0553 19.936 71.3037C19.187 73.2011 20.0359 78.0946 21.7336 81.8896C24.2802 87.4821 30.7216 92.1759 37.7124 93.4742C41.6072 94.2232 46.5506 93.7238 52.1931 92.1759C60.532 89.829 65.5254 88.8803 67.6725 89.2298C68.771 89.3796 71.5673 90.628 73.9142 91.9262C80.3057 95.5714 82.8024 96.1706 91.4908 96.1706C95.4855 96.1706 98.9809 96.0208 99.1806 95.821C99.3803 95.5714 99.1806 95.0221 98.7312 94.5228C97.1333 92.7751 92.4396 85.2351 92.6892 84.8856C92.9888 84.3863 96.584 84.7857 100.628 85.7844C103.824 86.5334 107.969 88.6306 110.965 91.0274C112.712 92.3756 112.912 92.4256 113.162 91.5767C113.311 91.0773 113.661 90.1286 113.911 89.4295C115.459 84.9355 115.958 73.5007 114.859 67.4588C114.56 65.761 114.36 64.263 114.46 64.1631C114.56 64.1132 116.208 65.012 118.105 66.2104L121.6 68.4075L121.9 67.0593C122.449 64.8622 122.399 53.5772 121.85 48.7337C121.55 46.2869 120.851 42.0925 120.302 39.446L119.353 34.6524L122.649 28.96C127.043 21.42 134.333 6.63969 134.333 5.29149C134.333 4.89202 133.634 5.09175 130.089 6.63969ZM71.4175 58.3209C71.9169 58.7703 69.1206 63.1146 67.6226 64.313C66.7238 64.9621 64.9262 65.8609 63.6279 66.2604C60.9315 67.0593 56.6372 67.2091 56.1878 66.4601C55.7883 65.811 57.2364 63.0646 58.8842 61.3169C60.532 59.5193 62.4295 58.5207 65.076 58.0213C67.0234 57.6718 70.8683 57.8715 71.4175 58.3209Z" fill="#9F9F9F" fill-opacity="0.03"/>
<path d="M26.0789 24.8176C24.531 30.0606 22.9331 31.6085 18.2893 32.5073L14.8438 33.1565L17.5402 34.1552C22.4836 35.9528 23.8817 37.5506 26.8278 44.9408C27.2273 46.0393 27.3772 45.9395 28.3758 43.1432C30.3732 37.7004 32.3704 35.5533 36.9144 34.0054L39.5109 33.1565L36.3652 32.5073C30.7227 31.4088 29.9237 30.6099 28.0262 23.8688L27.1774 20.9727L26.0789 24.8176Z" fill="#9F9F9F" fill-opacity="0.03"/>
<path d="M11.5983 94.0253C-1.18475 106.908 -3.63149 126.582 5.40649 143.859C12.6968 157.84 24.0816 167.178 38.7122 171.172C43.4559 172.471 44.3048 172.521 54.9406 172.521C66.8747 172.57 70.5199 172.121 79.1584 169.574C84.1518 168.126 87.2976 166.878 92.4407 164.331C96.6351 162.184 97.3342 161.485 94.3881 162.334C90.6931 163.383 80.8062 164.331 73.3162 164.331C54.2415 164.331 38.7122 159.638 29.6243 151.149C25.0304 146.855 19.288 138.915 20.1369 138.016C20.2867 137.917 21.6349 138.815 23.1828 140.064C33.569 148.502 45.4532 152.847 58.1863 152.847C63.5791 152.847 66.5751 152.447 83.1531 149.501C90.2936 148.253 99.9807 148.453 106.023 150C115.111 152.397 124.997 157.94 132.438 164.781C136.133 168.226 140.876 174.019 142.474 177.064L143.223 178.562L144.322 176.066C148.117 167.278 150.014 157.491 149.715 148.353C149.515 143.559 149.215 141.362 148.316 138.865C144.971 129.278 138.48 122.537 127.993 117.494L124.099 115.646L133.087 115.147L130.34 112.95C122.401 106.608 114.062 103.213 103.127 101.865C93.8888 100.716 83.7023 102.663 67.9233 108.556C53.143 114.048 44.9539 116.146 39.7608 115.746C27.8267 114.797 17.6901 105.859 14.794 93.7757L14.1948 91.3789L11.5983 94.0253Z" fill="#9F9F9F" fill-opacity="0.03"/>
</g>
<defs>
<clipPath id="clip0_976_2664">
<rect width="150" height="179" fill="white"/>
</clipPath>
</defs>
</svg>
